<?xml version="1.0" standalone="no"?>
<!DOCTYPE svg PUBLIC "-//W3C//DTD SVG 20010904//EN"
 "http://www.w3.org/TR/2001/REC-SVG-20010904/DTD/svg10.dtd">
<svg version="1.0" xmlns="http://www.w3.org/2000/svg"
 width="1920.000000pt" height="1920.000000pt" viewBox="0 0 1920.000000 1920.000000"
 preserveAspectRatio="xMidYMid meet">

<g transform="translate(0.000000,1920.000000) scale(0.100000,-0.100000)"
fill="#000000" stroke="none">
<path d="M9310 18949 c-1918 -55 -3778 -707 -5318 -1864 -727 -545 -1332
-1150 -1877 -1877 -1162 -1547 -1812 -3408 -1864 -5336 -36 -1375 212 -2695
741 -3936 714 -1677 1922 -3128 3437 -4130 370 -245 642 -401 1036 -596 1024
-507 2131 -820 3265 -924 556 -51 1184 -51 1740 0 1694 156 3339 785 4700
1799 450 336 771 619 1184 1045 535 552 1024 1214 1429 1935 202 359 443 885
590 1286 422 1151 609 2292 576 3522 -59 2187 -884 4270 -2348 5932 -205 232
-563 590 -796 796 -874 770 -1897 1384 -2956 1772 -1154 423 -2311 611 -3539
576z m820 -159 c1243 -76 2388 -373 3485 -905 1240 -600 2333 -1479 3206
-2576 886 -1115 1505 -2439 1794 -3839 89 -433 146 -872 175 -1340 13 -213 13
-847 0 -1060 -43 -699 -154 -1362 -335 -1996 -462 -1614 -1354 -3068 -2589
-4216 -1494 -1389 -3388 -2238 -5406 -2423 -299 -27 -490 -35 -860 -35 -464 0
-774 19 -1181 70 -1393 177 -2741 681 -3909 1459 -2026 1350 -3438 3436 -3924
5797 -90 437 -147 875 -176 1344 -13 213 -13 847 0 1060 77 1252 372 2387 914
3505 763 1575 2025 2952 3536 3857 1283 769 2685 1204 4185 1297 192 12 895
12 1085 1z"/>
<path d="M8236 18354 c-363 -56 -670 -107 -683 -113 -25 -12 -30 -35 -10 -48
6 -4 47 -6 89 -4 77 3 78 3 112 -31 21 -21 39 -53 49 -88 58 -201 184 -1053
175 -1182 -5 -68 -37 -110 -97 -129 -75 -22 -91 -31 -91 -51 0 -10 7 -21 16
-25 9 -3 119 13 243 35 124 23 296 49 381 58 181 19 203 25 198 57 -3 21 -9
22 -108 27 -58 3 -113 9 -122 14 -26 12 -55 65 -72 128 -27 104 -88 540 -78
550 18 18 222 14 263 -4 47 -20 87 -72 120 -150 19 -47 30 -63 45 -63 15 0 20
8 22 45 3 46 -61 550 -74 583 -4 11 -15 17 -28 15 -17 -3 -22 -14 -34 -83 -26
-159 -73 -208 -238 -246 -52 -12 -96 -20 -98 -18 -8 8 -66 457 -68 524 l-3 70
45 22 c100 49 385 70 486 35 76 -27 156 -79 237 -154 72 -68 107 -84 107 -50
0 16 -115 372 -122 377 -2 1 -300 -44 -662 -101z"/>
<path d="M11333 18323 c-7 -3 -13 -15 -13 -27 0 -18 12 -28 59 -48 76 -33 96
-62 93 -137 -2 -90 -75 -369 -223 -861 -101 -335 -105 -344 -146 -380 -32 -28
-39 -30 -119 -30 -68 0 -86 -3 -91 -16 -11 -29 21 -43 167 -74 80 -18 234 -61
343 -96 407 -132 565 -148 724 -74 85 39 156 108 196 189 29 60 32 74 32 161
0 84 -3 102 -28 152 -40 81 -114 158 -219 228 -49 33 -94 60 -99 60 -5 0 -9 5
-9 10 0 6 25 10 55 10 31 0 91 7 133 16 150 31 240 93 294 201 65 132 38 276
-71 382 -99 96 -183 131 -477 195 -115 26 -283 66 -374 90 -194 52 -211 55
-227 49z m701 -239 c56 -19 111 -70 137 -128 23 -52 25 -153 3 -227 -49 -164
-136 -249 -276 -265 -54 -6 -181 9 -208 26 -11 7 -6 37 30 177 38 149 114 405
127 426 8 13 139 7 187 -9z m-246 -715 c151 -52 232 -161 232 -313 0 -122 -48
-244 -123 -313 -56 -51 -74 -61 -138 -73 -93 -18 -253 22 -278 68 -18 33 17
179 125 520 l45 144 42 -7 c22 -4 65 -16 95 -26z"/>
<path d="M5958 17670 c-32 -5 -98 -23 -148 -39 -317 -107 -518 -314 -596 -618
-23 -87 -25 -113 -21 -233 3 -113 8 -148 31 -215 96 -281 286 -473 536 -542
93 -25 329 -25 420 1 94 26 275 118 347 176 131 105 234 265 285 445 20 69 23
102 23 240 -1 149 -3 165 -29 240 -80 229 -210 380 -411 476 -44 21 -107 45
-140 54 -75 19 -222 27 -297 15z m4 -160 c166 -51 313 -209 447 -477 127 -254
164 -430 126 -591 -28 -117 -91 -205 -182 -254 -237 -127 -501 31 -706 422
-119 227 -171 430 -149 580 24 166 92 259 229 316 72 29 149 31 235 4z"/>
<path d="M14108 16967 c-311 -221 -422 -302 -697 -510 -309 -234 -395 -272
-525 -236 -32 9 -41 8 -55 -5 -25 -25 -5 -45 102 -103 52 -28 144 -87 204
-131 102 -76 121 -86 151 -83 24 2 12 47 -23 81 -41 39 -65 87 -65 127 0 59
81 148 263 289 l48 38 32 -19 c18 -10 112 -70 210 -133 122 -78 177 -119 177
-132 0 -29 -39 -208 -61 -285 -27 -88 -53 -141 -78 -155 -28 -15 -86 -12 -128
5 -44 19 -69 19 -76 1 -9 -24 14 -43 138 -112 147 -82 249 -147 383 -247 57
-42 109 -77 116 -77 13 0 36 20 36 32 0 4 -20 30 -44 57 -43 49 -66 100 -66
150 0 47 32 242 90 541 79 408 123 650 156 859 l28 174 -30 23 c-16 13 -32 24
-36 24 -3 0 -116 -78 -250 -173z m-52 -154 c-3 -10 -23 -124 -46 -253 -49
-281 -49 -282 -64 -278 -6 2 -87 50 -179 107 -138 86 -166 106 -155 117 22 22
432 323 441 323 5 1 6 -7 3 -16z"/>
<path d="M9290 16654 c-390 -26 -535 -42 -800 -85 -1360 -220 -2565 -795
-3605 -1720 -173 -154 -519 -510 -667 -685 -976 -1162 -1532 -2520 -1660
-4049 -7 -85 -12 -311 -12 -520 0 -209 5 -435 12 -520 128 -1529 685 -2888
1660 -4049 138 -164 452 -490 627 -650 260 -238 563 -473 880 -682 1000 -660
2120 -1042 3360 -1146 196 -16 844 -16 1040 0 790 66 1540 248 2240 542 213
90 631 301 826 419 425 254 836 557 1174 867 148 136 459 455 571 584 1009
1173 1586 2556 1716 4115 7 85 12 311 12 520 0 209 -5 435 -12 520 -130 1559
-706 2941 -1716 4115 -122 141 -463 487 -611 619 -282 251 -533 444 -840 647
-997 658 -2106 1038 -3345 1144 -125 11 -746 21 -850 14z m775 -234 c350 -26
639 -66 970 -135 1015 -213 1990 -673 2810 -1323 364 -289 801 -716 1036
-1013 l31 -39 -5308 0 c-5053 0 -5306 1 -5292 18 310 366 518 579 823 843 590
512 1260 915 1996 1203 625 244 1293 393 1994 445 162 12 778 13 940 1z m2885
-2996 c75 -51 130 -121 130 -168 0 -23 4 -25 48 -28 44 -3 48 -5 58 -38 6 -19
19 -36 27 -38 10 -2 51 32 99 81 82 83 192 157 234 157 79 0 164 -63 164 -121
-1 -47 -31 -110 -79 -162 -45 -49 -74 -108 -65 -132 8 -19 27 -23 139 -28 103
-4 130 -16 146 -65 16 -48 1 -59 -112 -82 -129 -27 -140 -26 -190 16 -53 44
-72 43 -200 -17 -78 -35 -97 -41 -135 -35 -106 14 -147 56 -149 155 l-1 54
-49 13 c-28 7 -75 24 -105 37 -86 38 -108 40 -216 17 -159 -34 -225 -43 -236
-32 -6 6 -1 27 15 58 18 36 47 66 106 112 45 35 121 103 169 151 48 49 96 93
107 99 29 16 67 14 95 -4z m-3686 -128 c-13 -24 -43 -56 -65 -70 -23 -16 -57
-54 -80 -90 -40 -65 -70 -86 -117 -86 -37 0 -69 -21 -209 -138 -128 -107 -163
-146 -163 -184 0 -49 22 -63 105 -65 90 -3 104 -10 170 -79 74 -78 137 -84
252 -23 32 17 83 36 115 44 51 12 58 11 58 -2 0 -8 16 -31 35 -50 36 -36 36
-36 102 -30 75 7 111 26 126 67 12 31 0 29 232 49 61 5 130 17 155 26 42 15
50 15 119 -1 45 -9 90 -14 114 -10 57 9 135 45 155 71 16 20 29 23 113 26 83
4 98 7 129 30 31 23 48 28 139 34 114 8 200 36 220 73 22 41 13 70 -27 97 -51
34 -185 75 -245 75 -39 0 -56 6 -88 32 -50 40 -108 46 -244 24 -55 -8 -111
-13 -125 -9 -14 3 -51 25 -83 49 -71 53 -137 68 -262 61 l-89 -5 -31 33 c-16
18 -43 47 -58 64 l-28 31 1502 0 1502 0 -24 -26 c-46 -50 -211 -177 -273 -209
-91 -47 -189 -71 -230 -57 -63 23 -97 11 -76 -27 17 -32 84 -46 155 -32 137
27 135 27 135 -9 0 -26 10 -41 53 -81 81 -75 167 -96 258 -63 59 21 223 12
285 -17 24 -10 47 -19 53 -19 5 0 24 -12 41 -26 38 -32 142 -65 226 -71 34 -3
99 2 145 11 46 8 116 18 154 21 135 12 252 43 328 86 50 28 95 45 151 55 112
21 116 22 116 48 0 42 -15 46 -191 46 -166 0 -168 0 -198 26 -38 31 -38 46 -6
88 48 62 42 142 -14 189 -16 13 -32 33 -35 45 l-7 22 838 0 838 0 60 -97 c33
-54 61 -103 63 -110 3 -10 -796 -830 -819 -841 -3 -1 -37 16 -75 38 -100 58
-200 81 -375 87 -170 6 -289 -5 -476 -47 -223 -50 -294 -55 -531 -35 -234 19
-245 22 -367 110 -155 111 -244 140 -415 133 l-105 -5 -113 -62 c-236 -128
-439 -210 -549 -219 -85 -7 -114 7 -149 71 -57 104 -164 254 -221 308 -81 77
-150 111 -238 117 -124 7 -217 -42 -426 -224 -292 -256 -428 -342 -586 -369
-129 -22 -466 -51 -948 -80 -194 -12 -259 -20 -340 -41 -55 -14 -109 -28 -120
-30 -16 -4 -161 136 -670 646 l-650 650 962 0 962 0 -25 -44z m310 24 c89 -20
90 -20 150 -85 l61 -64 125 1 c141 1 160 -4 237 -64 66 -51 106 -56 243 -33
118 20 151 16 202 -25 30 -24 46 -30 86 -30 27 0 63 -5 81 -11 61 -21 28 -86
-56 -108 -23 -7 -45 -16 -48 -22 -4 -5 -29 -28 -57 -49 -45 -36 -56 -40 -106
-40 -60 0 -128 15 -137 30 -3 5 9 23 27 40 25 24 28 30 13 26 -74 -20 -127
-27 -174 -21 -40 5 -75 1 -143 -17 l-90 -23 -76 41 c-88 48 -139 59 -201 45
-43 -9 -101 -54 -101 -77 0 -7 17 -18 38 -24 50 -13 83 -49 84 -90 2 -49 -23
-63 -99 -57 -65 5 -73 0 -73 -44 0 -26 -39 -49 -97 -56 -46 -5 -51 -3 -72 23
-12 16 -25 41 -28 57 -5 24 -10 27 -27 22 -83 -26 -211 -7 -303 45 -60 34
-110 38 -184 16 -65 -20 -151 -28 -168 -17 -27 18 4 57 130 162 144 120 174
139 214 139 46 0 89 33 129 98 24 39 52 70 81 89 25 15 50 41 57 57 6 16 22
42 36 57 22 27 29 29 90 29 37 0 107 -9 156 -20z m3720 -40 c-32 -33 -62 -60
-66 -60 -4 0 -10 9 -13 20 -4 13 -21 24 -49 32 -33 9 -45 18 -54 40 l-10 28
126 0 125 0 -59 -60z m476 -106 c0 -24 -10 -50 -32 -80 -29 -40 -31 -48 -21
-74 l11 -30 -59 0 c-42 0 -59 4 -59 13 0 7 23 40 51 72 28 33 60 79 71 103 22
49 38 47 38 -4z m-925 -172 c9 -6 45 -76 45 -86 0 -4 -32 -6 -260 -22 -88 -6
-97 -4 -122 16 -16 12 -28 27 -28 33 0 7 52 23 128 38 128 27 219 35 237 21z
m-1947 -52 c17 -11 32 -24 32 -29 0 -16 -89 -51 -128 -51 l-36 0 31 33 c16 17
33 40 36 50 8 22 24 22 65 -3z m2122 -37 c0 -12 3 -29 6 -37 12 -31 -40 -1
-68 40 -15 21 -27 42 -28 45 0 4 20 -1 45 -10 35 -12 45 -21 45 -38z m-3134
-83 c42 -22 86 -40 99 -40 28 0 45 -37 24 -51 -29 -19 -143 -49 -185 -49 -39
0 -44 3 -44 22 0 37 -38 103 -71 122 -40 24 -24 36 49 36 42 0 67 -8 128 -40z
m-5456 -4284 l-1 -3421 -31 35 c-16 19 -83 100 -147 180 -791 985 -1300 2210
-1440 3465 -33 292 -41 455 -41 790 0 434 26 761 90 1140 113 669 299 1246
603 1869 l112 229 428 -433 427 -434 0 -3420z m5891 4250 c17 -20 16 -22 -3
-43 -11 -12 -41 -29 -65 -37 -40 -14 -61 -14 -128 -1 -12 3 -31 22 -43 44
l-23 40 48 14 c69 22 191 12 214 -17z m5426 -193 c127 -259 149 -309 237 -536
247 -632 395 -1298 446 -2009 5 -81 10 -289 10 -463 0 -542 -44 -965 -154
-1475 -167 -773 -505 -1580 -944 -2250 -52 -80 -133 -199 -181 -265 -91 -127
-347 -451 -374 -474 -16 -12 -17 229 -17 3411 l0 3424 426 432 c234 238 429
432 433 432 4 0 57 -102 118 -227z m-2277 186 c-25 -4 -47 -5 -49 -3 -7 6 65
21 79 15 8 -3 -5 -8 -30 -12z m-4470 -111 c19 -12 59 -29 88 -38 29 -9 53 -21
54 -26 0 -12 -80 -43 -115 -43 -36 -1 -66 15 -92 48 -11 14 -30 36 -41 48 -19
19 -20 22 -6 26 40 11 79 5 112 -15z m-1917 -513 c107 -22 208 -76 290 -155
82 -78 127 -147 165 -252 22 -63 26 -89 26 -193 0 -104 -4 -130 -26 -193 -38
-105 -83 -174 -165 -252 -188 -179 -452 -219 -691 -104 -108 52 -224 168 -276
276 -63 132 -80 264 -51 401 48 228 241 423 467 472 83 18 177 18 261 0z
m4985 -271 c34 -24 53 -69 67 -167 17 -112 46 -170 138 -277 194 -224 195
-226 263 -449 84 -274 98 -346 99 -491 0 -74 -4 -176 -9 -226 -10 -108 -4
-126 78 -222 129 -152 212 -536 158 -740 l-19 -73 53 -69 c77 -102 142 -210
166 -276 18 -51 21 -85 23 -254 2 -184 4 -201 33 -306 17 -61 49 -160 71 -220
22 -60 45 -131 51 -158 22 -101 8 -422 -21 -467 -6 -11 -177 154 -696 673
l-687 687 -1 538 c-1 519 -7 666 -41 1068 -31 373 -48 493 -135 935 -30 153
-43 204 -74 288 -19 52 -7 88 50 150 51 57 92 69 155 46 49 -17 51 -17 112 3
76 26 136 28 166 7z m-7041 -1218 c13 -6 14 -4 3 9 -11 13 -11 16 1 13 8 -2
20 -10 26 -18 11 -13 12 -12 6 5 -4 13 3 9 22 -13 16 -19 34 -31 42 -28 8 3
11 1 8 -4 -3 -6 -1 -10 6 -10 7 0 9 -10 7 -25 -3 -14 -1 -25 3 -25 5 0 9 -5 9
-11 0 -5 -5 -7 -11 -3 -8 4 -8 0 0 -15 9 -16 9 -21 0 -21 -7 0 -9 -3 -6 -6 3
-4 0 -16 -8 -27 -10 -14 -11 -24 -4 -33 8 -9 5 -11 -11 -7 -13 3 -25 0 -30 -7
-4 -7 -20 -14 -34 -16 -14 -1 -36 -6 -47 -9 -17 -6 -21 -4 -16 8 4 11 1 15
-14 12 -10 -2 -19 0 -19 6 0 5 -6 9 -14 9 -9 0 -13 7 -11 20 2 11 -2 20 -8 20
-8 0 -8 3 -2 8 13 9 19 46 7 38 -6 -3 -9 7 -8 25 1 17 8 34 15 39 8 4 10 13 7
19 -4 6 -4 11 1 10 24 -4 43 3 43 17 0 8 4 13 9 10 4 -3 7 7 5 22 -2 15 -1 20
2 10 3 -9 12 -19 21 -22z m90 -11 c0 -8 -4 -12 -9 -9 -4 3 -8 9 -8 15 0 5 4 9
8 9 5 0 9 -7 9 -15z m318 -195 c-3 -5 -1 -12 5 -15 6 -4 9 -1 8 5 -2 7 5 14
15 15 9 2 17 -1 17 -6 0 -5 5 -9 11 -9 5 0 7 5 3 12 -4 7 -3 8 4 4 7 -4 12
-13 12 -20 0 -8 10 -16 23 -20 17 -5 19 -8 8 -15 -9 -6 -10 -11 -3 -15 6 -4 9
-13 6 -21 -4 -8 1 -18 10 -21 15 -6 15 -8 1 -24 -8 -9 -12 -20 -8 -23 3 -4 1
-7 -6 -7 -7 0 -9 -5 -6 -10 9 -15 -14 -40 -36 -40 -11 0 -19 -4 -19 -9 0 -15
-69 -8 -75 7 -3 7 0 10 5 7 14 -9 54 -16 46 -8 -7 7 -28 13 -61 16 -11 1 -28
12 -38 25 -10 12 -22 20 -27 17 -4 -3 -10 2 -13 10 -4 10 -1 12 10 8 11 -4 14
-2 9 5 -4 7 -2 12 4 12 7 0 10 -7 7 -15 -4 -8 -2 -17 3 -20 6 -4 10 3 10 15 0
11 -7 23 -15 26 -21 9 -18 21 7 27 18 5 19 8 8 21 -8 11 -9 16 -1 16 6 0 10 5
9 11 -2 6 3 14 11 17 9 3 11 0 6 -8 -6 -9 -3 -9 14 -1 11 7 21 21 21 32 0 11
5 17 10 14 6 -4 8 -10 5 -15z m3378 -25 c107 -22 208 -76 290 -155 82 -78 127
-147 165 -252 22 -63 26 -89 26 -193 0 -104 -4 -130 -26 -193 -38 -105 -83
-174 -165 -252 -188 -179 -452 -219 -691 -104 -108 52 -224 168 -276 276 -63
132 -80 264 -51 401 48 228 241 423 467 472 83 18 177 18 261 0z m-3745 -40
c-3 -3 -9 2 -12 12 -6 14 -5 15 5 6 7 -7 10 -15 7 -18z m502 -25 c0 -5 -5 -10
-11 -10 -5 0 -7 5 -4 10 3 6 8 10 11 10 2 0 4 -4 4 -10z m817 -522 c40 -40 73
-78 73 -84 0 -7 -21 -31 -47 -54 -111 -97 -214 -135 -405 -150 -216 -16 -385
-75 -463 -161 -44 -49 -52 -81 -31 -125 40 -86 172 -131 526 -179 449 -61 820
-131 1020 -191 74 -22 97 -36 176 -99 151 -123 282 -270 320 -360 l14 -34 -95
-95 c-57 -58 -95 -103 -95 -115 0 -24 -40 -43 -146 -71 -130 -34 -225 -42
-574 -50 -284 -6 -355 -11 -400 -25 -119 -38 -184 -85 -214 -157 -39 -93 6
-197 108 -250 33 -17 82 -23 295 -39 891 -65 1305 -130 1611 -256 165 -67 289
-163 340 -262 43 -86 43 -237 -1 -329 -37 -77 -140 -172 -239 -220 -144 -69
-220 -87 -590 -138 -149 -20 -325 -62 -474 -114 -427 -148 -539 -334 -309
-515 139 -109 518 -264 759 -311 291 -55 672 -63 1194 -26 168 13 508 36 755
52 248 16 611 42 808 57 l358 27 591 -592 c326 -325 590 -593 588 -596 -3 -2
-93 20 -200 50 -341 95 -896 292 -1072 380 -199 100 -466 194 -673 238 -219
46 -383 59 -650 53 -258 -6 -348 -16 -835 -92 -510 -79 -775 -100 -1188 -92
-390 7 -513 28 -717 127 -212 102 -444 268 -621 445 -117 117 -189 215 -231
317 -40 95 -38 197 4 301 101 242 291 409 578 505 181 60 281 69 710 63 158
-3 230 0 290 12 211 40 313 124 283 233 -21 78 -145 178 -288 233 -187 73
-331 103 -596 126 -311 27 -851 138 -1064 219 -361 137 -482 289 -411 515 53
170 162 278 341 337 49 16 97 18 455 19 368 0 403 2 443 19 60 26 84 64 90
145 8 119 -27 189 -113 230 -58 27 -106 37 -288 62 -293 39 -513 98 -632 169
-160 97 -277 307 -245 440 41 172 201 260 622 340 156 30 313 76 408 119 25
11 52 21 60 21 8 0 47 -33 87 -72z m4186 -1133 c107 -22 208 -76 290 -155 82
-78 127 -147 165 -252 22 -63 26 -89 26 -193 0 -104 -4 -130 -26 -193 -38
-105 -83 -174 -165 -252 -188 -179 -452 -219 -691 -104 -108 52 -224 168 -276
276 -63 132 -80 264 -51 401 48 228 241 423 467 472 83 18 177 18 261 0z
m-2910 -377 c-4 -20 -3 -21 7 -5 6 9 16 17 23 17 8 0 8 -3 2 -8 -5 -4 -11 -13
-13 -21 -3 -12 0 -12 12 -2 11 9 16 9 22 0 4 -8 3 -9 -4 -5 -7 4 -12 2 -12 -4
0 -6 7 -13 15 -16 8 -4 15 -13 15 -21 0 -8 5 -11 10 -8 13 8 13 -1 0 -25 -9
-16 -8 -18 6 -13 14 5 16 2 12 -14 -3 -11 -1 -28 4 -37 6 -12 6 -16 -3 -14 -8
2 -14 -11 -16 -32 -2 -19 -4 -40 -5 -46 -1 -6 -9 -9 -18 -7 -10 3 -20 -2 -23
-11 -4 -10 -13 -13 -23 -9 -13 5 -15 3 -9 -8 7 -12 6 -12 -7 -1 -13 10 -19 10
-31 -3 -16 -16 -32 -21 -23 -7 3 4 -8 7 -25 6 -16 -1 -26 2 -23 8 3 5 -2 8
-11 6 -10 -2 -20 4 -22 12 -4 13 -3 13 7 0 10 -13 11 -13 7 0 -2 9 -13 14 -25
12 -17 -3 -20 1 -15 14 4 11 2 15 -4 11 -5 -3 -16 6 -24 20 -11 21 -12 27 -1
31 10 3 8 8 -5 18 -15 12 -15 13 -2 8 22 -7 35 14 19 29 -10 9 -11 9 -5 -2 6
-10 4 -12 -5 -6 -10 6 -6 14 16 33 16 13 23 21 17 18 -7 -4 -13 -4 -13 -1 0 3
15 12 33 20 17 8 26 14 20 15 -7 0 -13 4 -13 10 0 5 7 6 17 3 9 -4 14 -2 11 3
-3 5 0 15 8 22 12 11 15 10 20 -2 3 -9 10 -13 16 -10 5 3 7 12 5 19 -4 8 3 11
19 9 13 -1 26 2 30 7 9 15 12 10 7 -13z m-2529 -1100 c-3 -4 0 -8 6 -8 6 0 8
-5 4 -12 -4 -6 -3 -8 3 -5 13 8 43 -28 46 -56 1 -12 8 -27 15 -32 8 -6 15 -24
18 -40 7 -56 10 -70 18 -83 4 -6 4 -16 1 -22 -3 -5 0 -10 7 -10 9 0 9 -3 -2
-10 -8 -5 -10 -10 -5 -10 6 0 11 -9 11 -20 0 -11 -5 -20 -11 -20 -5 0 -2 -5 8
-11 17 -10 17 -12 2 -35 -8 -13 -11 -24 -6 -24 5 0 7 -10 3 -22 -3 -12 -1 -19
5 -15 5 3 10 0 10 -7 0 -7 -7 -13 -15 -12 -22 2 -26 -21 -5 -28 10 -3 6 -4 -9
-2 -15 2 -33 -1 -40 -5 -9 -6 -8 -9 7 -9 19 -1 19 -1 2 -11 -9 -6 -15 -14 -12
-20 4 -5 0 -9 -7 -10 -45 -3 -81 0 -87 7 -3 5 -19 10 -36 11 -28 3 -64 9 -75
13 -3 1 -9 2 -13 1 -5 -1 -11 7 -14 18 -4 17 -9 19 -25 10 -18 -10 -19 -9 -8
11 7 14 8 20 1 16 -11 -7 -29 20 -34 51 -1 10 -7 24 -11 32 -6 10 -5 12 2 7 7
-4 12 -2 12 3 0 6 -5 11 -11 11 -7 0 -9 10 -4 28 4 15 8 33 9 39 1 7 13 25 27
39 13 15 18 24 12 20 -7 -4 -13 -2 -13 4 0 7 9 14 20 17 11 3 17 9 14 14 -3 5
8 21 23 36 15 14 22 23 14 18 -10 -6 -12 -4 -5 6 5 8 9 19 9 24 1 6 6 9 12 8
6 -1 14 4 17 13 4 10 2 13 -7 7 -6 -4 -5 4 5 17 10 16 24 24 37 23 14 -2 21 3
21 13 0 13 3 14 14 5 12 -10 14 -8 10 11 -2 13 -2 17 2 10 8 -18 24 -4 18 16
-5 14 -4 14 4 2 6 -8 8 -18 6 -22z m7249 -183 c107 -22 208 -76 290 -155 82
-78 127 -147 165 -252 22 -63 26 -89 26 -193 0 -104 -4 -130 -26 -193 -38
-105 -83 -174 -165 -252 -188 -179 -452 -219 -691 -104 -108 52 -224 168 -276
276 -42 88 -66 186 -66 273 0 281 209 540 482 600 83 18 177 18 261 0z m-3333
-509 c0 -3 -4 -8 -10 -11 -5 -3 -10 -1 -10 4 0 6 5 11 10 11 6 0 10 -2 10 -4z
m7 -53 c6 4 13 0 17 -8 3 -8 14 -15 24 -15 25 0 46 -25 38 -45 -3 -9 0 -15 8
-15 8 0 16 -7 20 -15 3 -8 1 -15 -5 -15 -5 0 -1 -10 11 -22 21 -23 23 -33 20
-82 -1 -18 2 -26 9 -22 6 4 11 3 11 -3 0 -5 -4 -12 -10 -16 -5 -3 -7 -12 -4
-19 3 -7 -3 -19 -13 -27 -16 -13 -17 -12 -5 3 8 10 9 19 3 22 -5 3 -16 -13
-24 -36 -8 -24 -20 -42 -27 -40 -8 2 -10 -3 -7 -13 4 -8 2 -15 -3 -15 -6 0
-10 5 -10 11 0 5 -5 7 -10 4 -6 -4 -8 -10 -5 -15 6 -9 -28 -6 -45 5 -6 3 -10
2 -10 -2 0 -5 -9 -9 -21 -10 -14 -1 -19 3 -15 13 3 8 1 14 -4 14 -6 0 -10 -6
-11 -12 0 -9 -2 -9 -5 -2 -3 7 -14 9 -26 6 -15 -4 -19 -2 -13 7 6 10 3 11 -14
2 -12 -7 -21 -8 -21 -2 0 5 6 12 13 14 7 3 5 6 -5 6 -10 1 -18 -4 -18 -10 0
-8 -5 -8 -15 1 -8 7 -13 16 -10 20 3 5 0 12 -6 16 -8 4 -9 3 -5 -4 4 -7 2 -12
-3 -12 -6 0 -11 5 -11 11 0 5 -6 7 -12 3 -8 -5 -8 -1 1 10 12 14 12 19 2 26
-8 4 -11 12 -7 18 3 5 -1 15 -9 22 -12 10 -13 16 -4 26 6 8 16 11 22 7 6 -3 7
-1 3 6 -4 6 -13 8 -19 5 -7 -4 -2 4 11 18 13 14 22 29 21 34 -4 24 2 36 17 30
8 -3 12 -2 9 4 -3 6 -1 10 4 10 6 0 11 5 11 11 0 5 -6 7 -12 4 -7 -4 0 5 15
19 16 15 34 23 40 20 9 -5 9 -4 0 6 -9 10 -6 17 14 34 15 11 33 21 41 22 8 2
16 5 19 8 4 3 11 -2 18 -11 7 -9 17 -13 22 -10z m-243 -299 c3 -8 2 -12 -4 -9
-6 3 -10 10 -10 16 0 14 7 11 14 -7z m353 -46 c-3 -8 -6 -5 -6 6 -1 11 2 17 5
13 3 -3 4 -12 1 -19z m-3730 -802 c-6 -15 26 -32 51 -28 6 2 12 -5 13 -15 0
-11 3 -13 6 -5 7 17 23 15 23 -3 0 -8 4 -15 9 -15 5 0 18 -16 30 -36 12 -19
17 -32 11 -29 -5 3 -10 -1 -10 -9 0 -8 6 -13 13 -10 12 4 16 -8 20 -57 1 -10
7 -15 17 -12 13 4 13 4 0 -6 -8 -5 -15 -27 -16 -47 -1 -20 -7 -40 -14 -44 -7
-4 -10 -17 -8 -28 4 -14 2 -19 -8 -15 -7 2 -10 12 -7 20 4 11 2 14 -5 9 -7 -4
-12 -17 -12 -29 0 -18 -2 -19 -10 -7 -6 10 -10 11 -10 3 0 -7 -9 -13 -19 -13
-11 0 -22 -4 -26 -9 -8 -14 -46 -9 -41 5 3 7 -6 12 -22 11 -40 -1 -122 24
-122 37 0 6 -12 29 -26 50 -15 21 -22 36 -15 32 15 -9 14 17 -1 32 -8 8 -8 15
0 25 7 8 8 18 4 22 -4 5 -1 5 6 1 6 -4 19 0 28 8 14 15 11 20 -9 17 -5 -1 -5
3 -2 9 4 6 14 9 24 5 13 -5 14 -4 4 6 -10 10 -5 21 28 51 22 21 45 36 50 33 5
-4 6 1 3 10 -5 11 -2 14 10 9 9 -3 13 -11 9 -17 -3 -6 -1 -7 6 -3 6 4 11 13
10 19 -2 20 1 37 7 37 3 0 4 -7 1 -14z m-153 -313 c3 -7 2 -13 -3 -13 -5 0
-14 6 -20 13 -8 10 -7 14 4 14 8 0 16 -6 19 -14z m4421 -283 c-4 -7 2 -7 19 0
17 6 27 6 32 -1 3 -6 13 -8 21 -5 8 3 12 2 8 -3 -3 -5 9 -12 25 -16 27 -6 29
-9 18 -23 -7 -9 -8 -13 -2 -9 13 8 47 -26 37 -37 -4 -4 1 -4 12 0 17 7 18 6 7
-8 -11 -13 -10 -16 5 -14 13 1 18 -6 17 -21 0 -13 2 -23 6 -23 4 0 6 -13 5
-30 -2 -32 4 -37 22 -19 8 8 13 8 18 0 4 -7 1 -10 -7 -9 -7 2 -12 -3 -10 -10
1 -8 -2 -11 -7 -8 -5 3 -14 -1 -20 -8 -9 -11 -9 -16 2 -23 12 -6 10 -12 -11
-27 -15 -12 -22 -14 -17 -5 5 8 -4 3 -18 -10 -15 -13 -24 -27 -22 -31 2 -4 -6
-6 -18 -5 -12 1 -28 -2 -34 -8 -9 -6 -18 -5 -28 3 -10 9 -15 9 -15 1 0 -6 -5
-11 -11 -11 -5 0 -7 5 -3 12 4 6 3 8 -3 5 -25 -16 -98 -15 -116 0 -9 9 -20 13
-24 10 -9 -9 -43 22 -43 39 0 7 -6 11 -13 8 -9 -3 -14 7 -15 32 -2 21 -5 41
-8 46 -3 4 2 5 10 2 19 -7 21 7 4 26 -11 12 -10 12 3 2 16 -12 29 -7 29 10 0
5 -6 6 -12 2 -7 -4 -4 3 6 15 11 12 21 31 23 43 4 27 22 50 34 42 5 -3 9 1 9
8 0 18 33 45 48 40 7 -2 15 3 18 12 3 9 10 16 16 16 5 0 6 -4 3 -10z m-952
-174 c3 3 16 -3 28 -15 13 -12 31 -21 41 -21 10 0 15 -5 12 -13 -2 -7 4 -21
15 -31 11 -10 18 -23 14 -29 -4 -6 0 -8 11 -4 10 4 15 3 11 -3 -3 -6 -1 -10 5
-10 7 0 9 -7 6 -16 -3 -8 -2 -13 2 -11 4 3 13 -1 20 -9 10 -11 10 -14 0 -14
-8 0 -6 -5 5 -11 11 -7 16 -18 13 -35 -3 -14 -1 -22 5 -19 5 4 9 -3 9 -14 0
-12 -5 -21 -12 -21 -6 0 -9 -3 -6 -6 4 -3 -8 -19 -24 -35 -17 -16 -27 -29 -22
-29 5 0 -2 -6 -16 -13 -14 -7 -28 -9 -31 -5 -3 5 -12 2 -19 -7 -14 -16 -35
-21 -25 -5 3 6 1 10 -4 10 -6 0 -11 -5 -11 -11 0 -6 -7 -3 -16 5 -19 19 -65
21 -83 4 -10 -10 -12 -10 -7 -1 4 7 -5 18 -23 28 -34 17 -45 19 -37 7 3 -5 -2
-9 -10 -9 -10 0 -11 4 -4 11 17 17 11 29 -7 15 -12 -10 -15 -11 -9 -1 4 7 1
23 -8 37 -19 28 -20 39 -5 30 6 -4 5 2 -2 14 -10 14 -15 17 -21 8 -5 -8 -8 -7
-8 6 0 9 6 17 13 17 8 0 7 4 -3 10 -13 9 -7 14 13 11 7 -1 11 18 10 46 -1 7 3
10 8 7 5 -3 10 1 10 8 1 7 2 18 4 23 1 6 3 15 3 21 1 7 12 14 25 18 12 3 28
16 36 28 l14 23 -25 -22 c-13 -13 -28 -23 -34 -23 -5 0 4 11 20 25 17 14 36
23 43 21 7 -3 15 0 19 6 4 6 3 8 -4 4 -6 -3 -14 -1 -18 5 -4 7 -3 10 2 7 5 -3
18 -2 29 2 13 5 24 3 31 -6 6 -7 14 -11 17 -8z m61 -25 c-2 -3 -12 3 -22 13
-16 17 -16 18 5 5 12 -7 20 -15 17 -18z m-1081 -2 c12 4 29 6 37 3 20 -6 54
-42 40 -42 -6 0 -8 -5 -5 -10 5 -8 12 -7 23 2 13 11 15 10 10 -8 -3 -12 -1
-28 4 -35 8 -11 8 -10 4 4 -4 11 -2 16 5 11 6 -3 8 -17 4 -31 -4 -16 -2 -22 4
-18 7 3 8 0 5 -9 -3 -9 -1 -16 6 -16 6 0 9 -4 5 -9 -3 -5 -1 -13 5 -16 8 -5 7
-11 -1 -21 -9 -11 -9 -14 0 -14 7 0 9 -4 6 -10 -3 -5 -2 -10 4 -10 5 0 9 -9 8
-19 0 -10 -6 -17 -13 -14 -17 6 -24 -33 -8 -55 11 -16 11 -19 -2 -19 -8 0 -14
4 -14 9 0 4 -4 8 -10 8 -5 0 -7 -7 -4 -15 4 -8 2 -15 -4 -15 -5 0 -12 -9 -15
-21 -4 -16 -9 -19 -23 -11 -12 7 -26 6 -42 -1 -17 -8 -28 -8 -42 1 -13 8 -20
8 -22 0 -2 -6 -13 -8 -26 -4 -14 5 -20 12 -15 19 4 7 -1 6 -10 -2 -12 -10 -17
-10 -17 -2 0 16 -26 42 -33 35 -3 -4 -11 -3 -17 1 -9 6 -9 9 0 15 9 6 6 10 -9
15 -18 5 -19 10 -10 27 6 11 7 18 2 15 -5 -3 -14 3 -21 13 -9 15 -8 22 4 35 9
8 14 22 11 29 -3 8 1 22 9 33 14 17 14 16 4 -4 -6 -13 -8 -23 -6 -23 11 0 33
56 28 70 -5 13 -3 13 12 1 16 -13 17 -13 14 5 -2 12 2 18 11 16 9 -2 12 4 8
18 -3 11 -2 18 3 15 4 -3 11 5 14 18 7 21 7 21 16 2 8 -18 9 -18 9 -2 1 20 24
50 29 37 2 -5 13 -5 25 -1z m2147 -123 c0 -3 -4 -8 -10 -11 -5 -3 -10 -1 -10
4 0 6 5 11 10 11 6 0 10 -2 10 -4z m700 -132 c0 -13 3 -14 14 -5 10 9 16 9 21
1 4 -6 13 -9 21 -6 8 3 14 2 14 -3 0 -4 10 -13 23 -20 12 -6 14 -9 5 -7 -15 4
-16 2 -6 -19 9 -20 14 -22 25 -13 8 6 13 7 12 2 -1 -5 -1 -22 0 -38 1 -25 3
-27 18 -15 15 13 16 11 9 -13 -4 -20 -2 -28 6 -29 10 0 9 -2 -1 -6 -10 -4 -11
-7 -1 -13 7 -5 14 -20 16 -35 2 -21 -3 -29 -26 -39 -26 -11 -28 -14 -15 -27
14 -14 12 -15 -14 -13 -21 1 -28 -2 -25 -11 6 -15 -12 -15 -35 -1 -10 7 -12 6
-6 -4 6 -10 4 -12 -8 -7 -10 3 -17 2 -17 -2 0 -5 -7 -12 -16 -15 -13 -5 -14
-3 -6 7 8 10 6 13 -8 13 -10 0 -17 -4 -14 -7 2 -4 -7 -6 -22 -5 -14 2 -30 9
-35 17 -6 10 -9 10 -9 2 0 -7 -5 -13 -12 -13 -6 0 -8 3 -5 7 4 3 -1 12 -11 19
-22 17 -38 18 -23 1 8 -10 7 -14 -4 -14 -8 0 -15 8 -15 18 0 19 -33 43 -44 32
-4 -4 -5 4 -2 18 2 13 -2 30 -8 38 -8 11 -8 13 2 7 13 -8 13 19 -1 41 -6 9 -3
11 9 6 12 -4 15 -3 10 5 -4 7 -2 12 5 12 7 0 9 3 6 6 -4 4 1 14 11 23 31 29
58 65 42 56 -10 -6 -9 -1 3 13 11 11 25 18 33 15 8 -3 14 1 14 10 0 10 7 13
20 10 11 -3 20 0 20 6 0 6 7 11 15 11 8 0 15 -7 15 -16z m-2690 -34 c0 -5 -5
-10 -11 -10 -5 0 -7 5 -4 10 3 6 8 10 11 10 2 0 4 -4 4 -10z m-12 -1127 c392
-168 710 -308 708 -310 -6 -6 -274 42 -461 82 -404 87 -876 241 -1274 417
-174 76 -528 256 -686 349 -234 136 -734 477 -759 517 -3 5 391 -161 877 -369
485 -209 1203 -518 1595 -686z m5892 1025 c-121 -100 -503 -358 -725 -487
-158 -93 -511 -273 -686 -349 -398 -176 -870 -330 -1274 -417 -161 -35 -438
-85 -442 -81 -3 3 3138 1355 3147 1355 3 0 -6 -9 -20 -21z m-3400 -92 c0 -2
-7 -7 -16 -10 -8 -3 -12 -2 -9 4 6 10 25 14 25 6z"/>
<path d="M5510 10280 c-9 -6 -10 -10 -3 -10 6 0 15 5 18 10 8 12 4 12 -15 0z"/>
<path d="M5530 5276 c0 -2 8 -10 18 -17 15 -13 16 -12 3 4 -13 16 -21 21 -21
13z"/>
<path d="M5266 5155 c-3 -8 -1 -15 3 -15 5 0 11 7 15 15 3 8 1 15 -3 15 -5 0
-11 -7 -15 -15z"/>
<path d="M5460 4980 c0 -5 5 -10 11 -10 5 0 7 5 4 10 -3 6 -8 10 -11 10 -2 0
-4 -4 -4 -10z"/>
<path d="M9535 4510 c-3 -5 -1 -10 4 -10 6 0 11 5 11 10 0 6 -2 10 -4 10 -3 0
-8 -4 -11 -10z"/>
<path d="M8715 4590 c-3 -5 -1 -10 4 -10 6 0 11 5 11 10 0 6 -2 10 -4 10 -3 0
-8 -4 -11 -10z"/>
<path d="M7553 4325 c0 -8 4 -15 9 -15 4 0 8 4 8 9 0 6 -4 12 -8 15 -5 3 -9
-1 -9 -9z"/>
<path d="M10730 4065 c-11 -13 -10 -14 4 -9 9 3 16 10 16 15 0 13 -6 11 -20
-6z"/>
<path d="M15620 15606 c-175 -38 -320 -116 -445 -240 -130 -131 -194 -264
-215 -449 -50 -434 285 -883 797 -1067 l61 -22 124 94 c168 130 226 168 253
168 12 0 53 -23 91 -50 38 -28 76 -49 84 -48 39 8 14 46 -177 266 -109 125
-220 255 -248 289 -50 62 -76 80 -95 68 -19 -11 -10 -42 30 -111 65 -112 56
-150 -67 -263 -174 -160 -230 -179 -358 -118 -198 94 -291 278 -252 497 25
143 81 260 181 377 235 276 595 415 839 323 135 -51 262 -192 309 -342 44
-139 26 -337 -47 -516 -27 -67 -23 -102 14 -102 10 0 87 71 175 160 123 125
157 165 154 183 -3 20 -9 22 -55 22 -28 0 -56 5 -61 10 -5 6 -29 69 -52 140
-55 169 -87 238 -151 330 -133 192 -325 337 -518 391 -79 21 -289 27 -371 10z"/>
<path d="M2897 15448 c-40 -62 -109 -155 -153 -207 -90 -106 -104 -128 -97
-147 8 -22 39 -16 90 16 126 80 183 11 302 -369 27 -86 53 -167 56 -180 l7
-24 -263 6 c-282 7 -359 16 -399 45 -33 25 -37 71 -11 126 12 23 21 49 21 58
0 17 -26 32 -41 22 -5 -3 -58 -78 -118 -167 -60 -89 -159 -222 -220 -295 -61
-74 -111 -137 -111 -141 0 -13 24 -31 40 -31 9 0 25 9 34 19 10 11 41 30 69
43 49 22 63 23 247 22 206 -1 545 -26 669 -50 94 -17 138 -39 259 -126 127
-92 206 -161 232 -202 26 -43 26 -104 -1 -160 -24 -49 -20 -76 11 -76 22 0 35
18 145 187 39 59 119 166 178 238 60 71 113 140 119 152 26 54 -27 73 -64 22
-51 -69 -117 -85 -191 -48 -91 47 -423 286 -479 345 -15 16 -43 70 -62 121
-53 140 -161 478 -181 567 -22 101 -17 203 15 267 25 51 22 79 -9 79 -15 0
-41 -31 -94 -112z"/>
<path d="M17574 13496 c-3 -8 -1 -38 4 -68 14 -74 6 -103 -39 -142 -62 -52
-163 -96 -535 -231 -395 -143 -493 -187 -551 -243 -79 -77 -123 -186 -123
-305 0 -121 62 -353 133 -492 99 -197 235 -316 396 -345 119 -21 255 10 616
140 296 107 415 145 488 156 87 12 155 -21 213 -101 24 -33 54 -29 54 8 0 12
-25 80 -55 149 -30 70 -69 178 -87 239 -33 112 -50 138 -82 126 -15 -6 -16
-17 -10 -81 6 -65 4 -78 -16 -114 -42 -74 -147 -133 -420 -235 -450 -168 -638
-199 -777 -132 -91 45 -164 156 -204 312 -41 163 -8 300 95 391 73 64 317 170
639 277 219 73 334 99 389 90 48 -8 92 -45 119 -97 15 -30 25 -39 42 -36 36 5
26 59 -40 208 -33 74 -88 221 -123 325 -34 105 -67 196 -73 203 -13 16 -46 15
-53 -2z"/>
<path d="M1387 13052 c-19 -64 -59 -198 -88 -297 -59 -206 -154 -490 -294
-884 l-98 -274 24 -18 c30 -23 330 -159 350 -159 18 0 39 20 39 37 0 7 -29 45
-64 83 -132 143 -161 260 -112 449 14 56 32 117 40 136 l15 34 148 -39 c329
-86 863 -258 1013 -327 80 -36 114 -62 136 -105 17 -33 18 -103 3 -164 -10
-39 -9 -48 4 -61 26 -26 44 -1 78 111 58 190 140 441 190 579 53 150 57 172
33 181 -24 9 -31 1 -73 -82 -72 -143 -99 -151 -307 -99 -399 101 -1104 339
-1104 373 0 7 12 46 26 86 89 249 173 330 387 377 47 10 90 22 96 25 13 9 15
53 2 60 -5 3 -89 24 -188 46 -98 22 -187 42 -199 45 -19 4 -24 -7 -57 -113z"/>
<path d="M18355 10798 c-2 -7 -6 -38 -10 -68 -11 -93 -36 -116 -160 -143 -131
-29 -726 -90 -1010 -103 -210 -10 -245 5 -287 119 -23 63 -41 78 -65 55 -13
-14 -13 -25 1 -99 23 -130 36 -258 45 -459 9 -191 13 -215 36 -224 27 -10 45
23 45 83 0 68 21 103 77 126 85 36 352 75 787 115 264 24 461 26 511 6 40 -17
73 -65 82 -119 6 -37 25 -67 43 -67 27 0 27 43 5 230 -13 107 -29 273 -34 368
-6 95 -13 177 -16 182 -9 14 -45 12 -50 -2z"/>
<path d="M766 10468 c-3 -24 -7 -126 -10 -228 -3 -102 -12 -251 -21 -332 -8
-81 -12 -154 -9 -163 7 -18 38 -20 51 -2 6 6 14 30 18 52 10 59 30 91 67 106
66 28 578 15 1046 -27 295 -26 331 -44 350 -175 4 -32 14 -56 24 -63 36 -22
42 5 44 197 1 108 11 257 24 366 23 196 20 231 -19 231 -21 0 -26 -10 -36 -78
-9 -54 -46 -98 -93 -112 -68 -18 -244 -22 -502 -11 -641 28 -815 54 -848 126
-7 14 -14 45 -18 68 -11 82 -13 87 -39 87 -21 0 -24 -6 -29 -42z"/>
<path d="M17390 9084 c-56 -11 -158 -47 -212 -76 -279 -148 -454 -505 -417
-848 18 -163 75 -301 183 -437 166 -209 395 -324 651 -325 138 -1 217 18 350
82 220 106 362 300 420 575 25 116 23 297 -4 400 -80 301 -308 532 -601 610
-64 17 -314 29 -370 19z m248 -410 c341 -59 542 -174 629 -360 39 -83 39 -193
1 -277 -52 -111 -178 -201 -325 -232 -97 -21 -285 -19 -428 5 -344 56 -542
165 -632 348 -33 65 -37 84 -37 146 0 98 25 164 85 230 77 85 177 133 320 155
80 12 273 5 387 -15z"/>
<path d="M1903 8930 c-47 -19 -25 -54 61 -97 231 -115 346 -267 346 -453 -1
-323 -352 -579 -821 -597 -106 -4 -153 -2 -210 11 -157 35 -265 110 -321 224
-31 63 -33 72 -33 177 0 104 2 114 32 176 39 79 175 228 269 295 48 34 64 52
64 69 0 15 -7 26 -19 30 -25 8 -491 -112 -511 -131 -22 -21 -4 -44 66 -81 l60
-32 -23 -93 c-61 -243 -28 -496 88 -675 81 -123 231 -241 380 -297 220 -82
478 -72 696 29 204 94 363 281 420 495 24 90 24 298 0 402 -49 209 -141 340
-326 463 -75 49 -177 99 -194 94 -1 0 -12 -4 -24 -9z"/>
<path d="M17051 6577 l-184 -112 -199 68 c-110 38 -202 66 -205 64 -2 -3 17
-98 43 -210 l47 -205 -131 -173 -131 -174 132 -12 c73 -6 170 -14 217 -18 l85
-7 120 -174 c66 -96 123 -174 126 -174 3 0 44 88 90 197 l84 196 202 61 c112
34 203 64 203 68 0 3 -72 69 -161 145 l-161 138 7 218 c4 119 6 217 4 216 -2
0 -87 -51 -188 -112z"/>
<path d="M1892 6466 l5 -213 -158 -139 c-88 -76 -159 -141 -159 -145 0 -3 91
-33 203 -66 l202 -60 85 -197 c47 -108 87 -196 91 -196 4 0 199 278 239 340 3
5 82 16 175 24 94 9 191 19 217 22 l46 6 -129 168 c-71 93 -129 177 -129 187
0 10 20 106 45 213 24 107 43 195 41 197 -1 1 -93 -29 -204 -69 l-201 -71
-180 107 c-99 58 -183 106 -187 106 -4 0 -5 -96 -2 -214z"/>
<path d="M6297 2953 c-4 -3 -7 -17 -7 -29 0 -18 18 -34 83 -73 94 -57 110 -72
132 -125 31 -74 18 -116 -206 -645 -209 -492 -224 -518 -311 -541 -37 -10 -57
-8 -173 24 -55 15 -85 7 -85 -23 0 -31 29 -46 230 -121 175 -65 411 -169 541
-237 63 -32 94 -28 94 12 0 25 -8 33 -60 62 -87 48 -115 85 -115 149 0 77 27
148 299 793 156 369 251 606 251 626 0 21 -6 35 -16 39 -9 3 -67 6 -129 6
-126 0 -261 22 -395 64 -81 26 -121 32 -133 19z"/>
<path d="M12477 2934 c-73 -17 -195 -68 -272 -112 -130 -76 -256 -237 -299
-381 -20 -69 -21 -199 -1 -275 23 -86 82 -193 140 -251 163 -161 437 -190 677
-69 81 40 194 127 228 174 12 16 25 30 29 30 5 0 17 -42 27 -92 22 -112 25
-290 5 -368 -42 -171 -165 -299 -287 -300 -51 0 -70 20 -109 114 -51 123 -105
163 -211 154 -136 -11 -222 -158 -165 -284 56 -123 223 -174 412 -125 241 62
469 222 582 409 98 161 145 378 126 584 -35 378 -260 698 -553 787 -81 25
-237 27 -329 5z m119 -148 c88 -46 156 -122 216 -240 77 -153 104 -296 74
-397 -32 -112 -143 -199 -255 -199 -73 0 -128 28 -191 97 -58 64 -149 240
-176 343 -21 78 -24 220 -5 273 18 54 67 106 126 134 64 31 139 27 211 -11z"/>
<path d="M8340 2423 c-122 -20 -261 -92 -346 -179 -165 -167 -201 -443 -84
-638 73 -121 228 -226 386 -262 104 -23 282 -16 373 15 35 12 65 20 67 18 3
-2 -10 -44 -27 -93 -78 -221 -185 -360 -327 -427 -56 -26 -79 -31 -142 -32
-127 0 -170 42 -150 147 6 28 10 73 10 100 0 167 -198 248 -327 135 -66 -58
-87 -139 -59 -220 46 -128 173 -210 387 -248 93 -17 295 -17 374 0 392 84 677
429 727 882 21 189 -17 375 -107 515 -120 188 -350 296 -625 293 -58 -1 -116
-4 -130 -6z m330 -123 c118 -59 178 -205 166 -405 -12 -231 -78 -368 -209
-437 -56 -30 -175 -32 -227 -4 -123 65 -169 206 -140 432 42 335 216 511 410
414z"/>
<path d="M10460 2406 c-198 -42 -348 -153 -464 -345 -202 -334 -172 -802 70
-1095 109 -133 254 -228 399 -262 105 -24 284 -15 390 19 339 111 540 439 522
855 -6 152 -33 256 -106 407 -103 213 -265 353 -476 410 -83 22 -254 28 -335
11z m209 -112 c174 -87 295 -445 308 -911 10 -334 -35 -486 -164 -555 -134
-72 -266 -27 -368 128 -114 171 -182 510 -172 849 7 231 38 341 125 437 73 81
174 100 271 52z"/>
</g>
</svg>
